<mxfile host="Electron" agent="Mozilla/5.0 (X11; Linux x86_64) AppleWebKit/537.36 (KHTML, like Gecko) draw.io/24.7.5 Chrome/126.0.6478.183 Electron/31.3.0 Safari/537.36" version="24.7.5">
  <diagram name="第 1 页" id="w-efsec1xvJH3sStKlZ2">
    <mxGraphModel dx="693" dy="478" grid="1" gridSize="10" guides="1" tooltips="1" connect="1" arrows="1" fold="1" page="1" pageScale="1" pageWidth="1169" pageHeight="827" math="0" shadow="0">
      <root>
        <mxCell id="0" />
        <mxCell id="1" parent="0" />
        <mxCell id="8w7hxisatXhz_B9c8-wv-1" value="" style="rounded=1;whiteSpace=wrap;html=1;fillColor=#ffe6cc;strokeColor=#d79b00;" vertex="1" parent="1">
          <mxGeometry x="630" y="310" width="260" height="160" as="geometry" />
        </mxCell>
        <mxCell id="8w7hxisatXhz_B9c8-wv-2" value="" style="rounded=1;whiteSpace=wrap;html=1;fillColor=#d5e8d4;strokeColor=#82b366;" vertex="1" parent="1">
          <mxGeometry x="500" y="340" width="100" height="120" as="geometry" />
        </mxCell>
        <mxCell id="8w7hxisatXhz_B9c8-wv-3" value="file page" style="rounded=0;whiteSpace=wrap;html=1;fillColor=#f8cecc;strokeColor=#b85450;" vertex="1" parent="1">
          <mxGeometry x="515" y="370" width="70" height="20" as="geometry" />
        </mxCell>
        <mxCell id="8w7hxisatXhz_B9c8-wv-4" value="file page" style="rounded=0;whiteSpace=wrap;html=1;fillColor=#f8cecc;strokeColor=#b85450;" vertex="1" parent="1">
          <mxGeometry x="515" y="400" width="70" height="20" as="geometry" />
        </mxCell>
        <mxCell id="8w7hxisatXhz_B9c8-wv-5" value="file page" style="rounded=0;whiteSpace=wrap;html=1;fillColor=#f8cecc;strokeColor=#b85450;" vertex="1" parent="1">
          <mxGeometry x="515" y="430" width="70" height="20" as="geometry" />
        </mxCell>
        <mxCell id="8w7hxisatXhz_B9c8-wv-6" value="page cache" style="text;html=1;align=center;verticalAlign=middle;whiteSpace=wrap;rounded=0;" vertex="1" parent="1">
          <mxGeometry x="500" y="340" width="100" height="30" as="geometry" />
        </mxCell>
        <mxCell id="8w7hxisatXhz_B9c8-wv-7" value="" style="rounded=1;whiteSpace=wrap;html=1;fillColor=#b1ddf0;strokeColor=#10739e;" vertex="1" parent="1">
          <mxGeometry x="650" y="340" width="100" height="120" as="geometry" />
        </mxCell>
        <mxCell id="8w7hxisatXhz_B9c8-wv-8" value="" style="rounded=1;whiteSpace=wrap;html=1;fillColor=#d5e8d4;strokeColor=#82b366;" vertex="1" parent="1">
          <mxGeometry x="770" y="340" width="100" height="120" as="geometry" />
        </mxCell>
        <mxCell id="8w7hxisatXhz_B9c8-wv-9" value="block page" style="rounded=0;whiteSpace=wrap;html=1;fillColor=#e1d5e7;strokeColor=#9673a6;" vertex="1" parent="1">
          <mxGeometry x="785" y="370" width="70" height="20" as="geometry" />
        </mxCell>
        <mxCell id="8w7hxisatXhz_B9c8-wv-10" value="block page" style="rounded=0;whiteSpace=wrap;html=1;fillColor=#e1d5e7;strokeColor=#9673a6;" vertex="1" parent="1">
          <mxGeometry x="785" y="400" width="70" height="20" as="geometry" />
        </mxCell>
        <mxCell id="8w7hxisatXhz_B9c8-wv-11" value="block page" style="rounded=0;whiteSpace=wrap;html=1;fillColor=#e1d5e7;strokeColor=#9673a6;" vertex="1" parent="1">
          <mxGeometry x="785" y="430" width="70" height="20" as="geometry" />
        </mxCell>
        <mxCell id="8w7hxisatXhz_B9c8-wv-12" value="buffer cache" style="text;html=1;align=center;verticalAlign=middle;whiteSpace=wrap;rounded=0;" vertex="1" parent="1">
          <mxGeometry x="770" y="340" width="100" height="30" as="geometry" />
        </mxCell>
        <mxCell id="8w7hxisatXhz_B9c8-wv-13" style="edgeStyle=orthogonalEdgeStyle;rounded=0;orthogonalLoop=1;jettySize=auto;html=1;" edge="1" parent="1" source="8w7hxisatXhz_B9c8-wv-16" target="8w7hxisatXhz_B9c8-wv-3">
          <mxGeometry relative="1" as="geometry" />
        </mxCell>
        <mxCell id="8w7hxisatXhz_B9c8-wv-14" style="edgeStyle=orthogonalEdgeStyle;rounded=0;orthogonalLoop=1;jettySize=auto;html=1;" edge="1" parent="1" source="8w7hxisatXhz_B9c8-wv-17" target="8w7hxisatXhz_B9c8-wv-10">
          <mxGeometry relative="1" as="geometry" />
        </mxCell>
        <mxCell id="8w7hxisatXhz_B9c8-wv-15" value="device driver" style="text;html=1;align=center;verticalAlign=middle;whiteSpace=wrap;rounded=0;" vertex="1" parent="1">
          <mxGeometry x="630" y="310" width="260" height="30" as="geometry" />
        </mxCell>
        <mxCell id="8w7hxisatXhz_B9c8-wv-16" value="buffer head" style="rounded=0;whiteSpace=wrap;html=1;fillColor=#f8cecc;strokeColor=#b85450;" vertex="1" parent="1">
          <mxGeometry x="660" y="370" width="80" height="20" as="geometry" />
        </mxCell>
        <mxCell id="8w7hxisatXhz_B9c8-wv-17" value="buffer head" style="rounded=0;whiteSpace=wrap;html=1;fillColor=#e1d5e7;strokeColor=#9673a6;" vertex="1" parent="1">
          <mxGeometry x="660" y="400" width="80" height="20" as="geometry" />
        </mxCell>
        <mxCell id="8w7hxisatXhz_B9c8-wv-18" value="buffer head" style="rounded=0;whiteSpace=wrap;html=1;fillColor=#eeeeee;strokeColor=#36393d;" vertex="1" parent="1">
          <mxGeometry x="660" y="430" width="80" height="20" as="geometry" />
        </mxCell>
        <mxCell id="8w7hxisatXhz_B9c8-wv-19" value="buffer heads" style="text;html=1;align=center;verticalAlign=middle;whiteSpace=wrap;rounded=0;" vertex="1" parent="1">
          <mxGeometry x="650" y="339" width="100" height="30" as="geometry" />
        </mxCell>
      </root>
    </mxGraphModel>
  </diagram>
</mxfile>
